<svg width="48" height="48" viewBox="0 0 96 96" fill="none" xmlns="http://www.w3.org/2000/svg">
<g clip-path="url(#clip0_71_910)">
<path d="M54 69H49.5V72H54V69Z" fill="#569FD3"/>
<path d="M54 75H49.5V78H54V75Z" fill="#569FD3"/>
<path d="M54 81H49.5V84H54V81Z" fill="#569FD3"/>
<path d="M54 87H49.5V90H54V87Z" fill="#569FD3"/>
<path d="M19.5 78H7.5V81H19.5V78Z" fill="#569FD3"/>
<path d="M19.5 66H7.5V69H19.5V66Z" fill="#569FD3"/>
<path d="M19.5 72H7.5V75H19.5V72Z" fill="#569FD3"/>
<path d="M40.5 78H28.5V81H40.5V78Z" fill="#569FD3"/>
<path d="M66 96H48V0H66V96ZM51 93H63V3H51V93Z" fill="#569FD3"/>
<path d="M54 27H49.5V30H54V27Z" fill="#569FD3"/>
<path d="M54 21H49.5V24H54V21Z" fill="#569FD3"/>
<path d="M54 33H49.5V36H54V33Z" fill="#569FD3"/>
<path d="M54 39H49.5V42H54V39Z" fill="#569FD3"/>
<path d="M54 45H49.5V48H54V45Z" fill="#569FD3"/>
<path d="M54 51H49.5V54H54V51Z" fill="#569FD3"/>
<path d="M54 57H49.5V60H54V57Z" fill="#569FD3"/>
<path d="M54 63H49.5V66H54V63Z" fill="#569FD3"/>
<path d="M13.5 96C13.005 96 12.525 95.745 12.255 95.325L6.255 86.325C6.09 86.085 6 85.8 6 85.5V1.5C6 0.675 6.675 0 7.5 0H19.5C20.325 0 21 0.675 21 1.5V85.5C21 85.8 20.91 86.085 20.745 86.325L14.745 95.325C14.475 95.745 13.995 96 13.5 96ZM9 85.05L13.5 91.8L18 85.05V3H9V85.05Z" fill="#569FD3"/>
<path d="M19.5 54H7.5V57H19.5V54Z" fill="#569FD3"/>
<path d="M19.5 60H7.5V63H19.5V60Z" fill="#569FD3"/>
<path d="M3 39H0V10.5C0 9.675 0.675 9 1.5 9H19.5V12H3V39Z" fill="#569FD3"/>
<path d="M36 10.5H33V79.5H36V10.5Z" fill="#569FD3"/>
<path d="M40.5 9H28.5V12H40.5V9Z" fill="#569FD3"/>
<path d="M34.5 96C34.005 96 33.525 95.745 33.255 95.325L27.255 86.325C27.09 86.085 27 85.8 27 85.5V7.5C27 3.36 30.36 0 34.5 0C38.64 0 42 3.36 42 7.5V85.5C42 85.8 41.91 86.085 41.745 86.325L35.745 95.325C35.475 95.745 34.995 96 34.5 96ZM30 85.05L34.5 91.8L39 85.05V7.5C39 5.025 36.975 3 34.5 3C32.025 3 30 5.025 30 7.5V85.05Z" fill="#569FD3"/>
<path d="M57 15C58.6569 15 60 13.6569 60 12C60 10.3431 58.6569 9 57 9C55.3431 9 54 10.3431 54 12C54 13.6569 55.3431 15 57 15Z" fill="#569FD3"/>
<path d="M91.5 96H76.5C74.025 96 72 93.975 72 91.5V64.5C72 62.025 74.025 60 76.5 60H91.5C93.975 60 96 62.025 96 64.5V91.5C96 93.975 93.975 96 91.5 96ZM76.5 63C75.675 63 75 63.675 75 64.5V91.5C75 92.325 75.675 93 76.5 93H91.5C92.325 93 93 92.325 93 91.5V64.5C93 63.675 92.325 63 91.5 63H76.5Z" fill="#569FD3"/>
<path d="M85.5 66H82.5V72H85.5V66Z" fill="#569FD3"/>
<path d="M85.5 57H82.5V51C82.5 47.685 85.185 45 88.5 45H90C91.65 45 93 43.65 93 42C93 40.35 91.65 39 90 39H78C74.685 39 72 36.315 72 33C72 29.685 74.685 27 78 27H90C91.65 27 93 25.65 93 24C93 22.35 91.65 21 90 21H78C74.685 21 72 18.315 72 15C72 11.685 74.685 9 78 9H79.5C81.15 9 82.5 7.65 82.5 6V0H85.5V6C85.5 9.315 82.815 12 79.5 12H78C76.35 12 75 13.35 75 15C75 16.65 76.35 18 78 18H90C93.315 18 96 20.685 96 24C96 27.315 93.315 30 90 30H78C76.35 30 75 31.35 75 33C75 34.65 76.35 36 78 36H90C93.315 36 96 38.685 96 42C96 45.315 93.315 48 90 48H88.5C86.85 48 85.5 49.35 85.5 51V57Z" fill="#569FD3"/>
</g>
<defs>
<clipPath id="clip0_71_910">
<rect width="96" height="96" fill="white"/>
</clipPath>
</defs>
</svg>
