<svg width="95" height="72" viewBox="0 0 95 72" fill="none" xmlns="http://www.w3.org/2000/svg">
<path d="M47.8971 16.9313C49.7846 17.3673 51.8216 17.2303 53.7402 16.4018C55.6526 15.5733 57.1477 14.1779 58.1194 12.5023C56.232 12.0662 54.195 12.2032 52.2763 13.0317C50.3639 13.8602 48.8689 15.2556 47.8971 16.9313Z" fill="#254294"/>
<path d="M5.1018 69.2201H3.17695V66.6162H4.96476C5.94276 66.6162 6.5034 66.8841 6.5034 67.9182C6.5034 68.7093 5.94899 69.2201 5.1018 69.2201ZM3.17695 61.9193H4.90247C5.81817 61.9193 6.22308 62.156 6.22308 63.0842C6.22308 63.894 5.73096 64.2491 4.90247 64.2491H3.17695V61.9193ZM7.13256 65.414V65.3268C7.74303 65.1773 9.34396 64.8035 9.34396 62.5547C9.34396 59.546 6.13587 59.546 5.08935 59.546H0V71.5748H4.96476C6.21685 71.5748 9.68035 71.5748 9.68035 68.348C9.68035 66.1117 8.12925 65.551 7.13256 65.414Z" fill="#254294"/>
<path d="M18.501 65.5697C18.501 67.6627 18.0089 69.407 16.0155 69.407C13.991 69.407 13.53 67.669 13.53 65.5697C13.53 63.4767 13.9848 61.7324 16.0155 61.7324C18.0151 61.7324 18.501 63.4704 18.501 65.5697ZM10.0541 65.5697C10.0541 70.2168 13.1625 71.8738 16.0155 71.8738C19.1053 71.8738 21.9832 70.2168 21.9832 65.5697C21.9832 60.9226 19.5476 59.2656 16.0155 59.2656C13.1625 59.2656 10.0541 60.9226 10.0541 65.5697Z" fill="#254294"/>
<path d="M26.1569 66.7533L27.1037 63.9314C27.2719 63.4206 27.5086 62.6793 27.627 62.019H27.6955C27.764 62.4737 27.9509 63.2026 28.1876 63.9314L29.1033 66.7533H26.1569ZM25.671 59.5522L21.2606 71.581H24.5746L25.3657 69.1142H29.8446L30.5735 71.581H34.0556L29.8384 59.5522H25.671Z" fill="#254294"/>
<path d="M41.7052 59.5522H32.1744V62.0875H35.2828V71.581H38.5968V62.0875H41.7052V59.5522Z" fill="#254294"/>
<path d="M58.6365 66.7533L59.5834 63.9314C59.7516 63.4206 59.9883 62.6793 60.1066 62.019H60.1752C60.2437 62.4737 60.4306 63.2026 60.6673 63.9314L61.5767 66.7533H58.6365ZM62.318 59.5522H58.1444L54.6373 69.1142H48.109V66.7159H52.9242V64.2491H48.109V62.019H53.2295V59.5522H44.8635V71.581H53.734H55.5966H57.0418L57.8329 69.1142H62.3118L63.0406 71.581H66.5228L62.318 59.5522Z" fill="#254294"/>
<path d="M71.5997 61.7325C72.8144 61.7325 73.2193 62.5111 73.4435 63.2213L76.471 62.4301C75.9477 60.2686 73.9543 59.2719 71.6059 59.2719C68.7529 59.2719 65.6382 60.9289 65.6382 65.5759C65.6382 70.3102 68.6096 71.88 71.7554 71.88C73.6117 71.88 75.711 71.0515 76.3651 70.4784V64.6478H71.5187V67.0149H73.294V69.0083C72.9203 69.326 72.0793 69.4132 71.6059 69.4132C69.5751 69.4132 69.1204 67.5008 69.1204 65.5759C69.1142 63.7757 69.5689 61.7325 71.5997 61.7325Z" fill="#254294"/>
<path d="M77.312 59.5522V71.581H85.0986V69.0519H80.6197V59.5522H77.312Z" fill="#254294"/>
<path d="M94.2557 69.1142H88.9483V66.7159H93.7636V64.2491H88.9483V62.019H94.0688V59.5522H85.7091V71.581H94.2557V69.1142Z" fill="#254294"/>
<path d="M90.5866 57.2598H94.4426V21.5223H64.436V25.3782H90.5866V57.2598Z" fill="#254294"/>
<path d="M3.94318 25.3782H25.2038C25.4405 23.9205 25.9825 22.6062 26.7861 21.5223H0.0810089V57.2536H3.93695V25.3782H3.94318Z" fill="#254294"/>
<path d="M59.7515 25.7333V21.7091L29.5331 35.1645L30.6046 26.3811C30.7105 25.5775 31.0655 24.5123 32.1432 24.0202L43.8668 18.7066L45.3556 14.7012L45.368 14.6576C45.8477 13.2684 46.209 12.3901 47.5109 11.7921L64.3176 4.03036V0L45.9847 8.46563C43.2065 9.73641 42.4278 11.9603 41.917 13.4429L40.9639 15.9969L30.6233 20.6813C28.5863 21.6095 27.2844 23.4658 26.9604 25.9202L25.0979 41.1633L59.7515 25.7333Z" fill="#254294"/>
</svg>
