<svg width="214" height="80" viewBox="0 0 214 80" fill="none" xmlns="http://www.w3.org/2000/svg">
<g opacity="0.5">
<path d="M135.273 0C150.549 0 157.855 11.2912 158.519 15.9405C153.206 9.96281 145.9 6.64187 135.937 6.64187C126.949 6.61038 118.017 11.7589 114.019 19.9256C109.258 11.593 100.494 6.80449 92.1007 6.64187C80.1453 6.64187 72.1751 10.627 65.5332 17.2689C65.5332 13.9479 74.1676 0 91.4365 0C108.705 0 114.019 7.97024 114.019 7.97024C114.019 7.97024 119.997 0 135.273 0Z" fill="white"/>
<path d="M89.4438 23.9107C70.1824 23.9107 58.8912 29.8884 56.2345 33.2093C62.8764 30.5526 74.3974 29.1875 81.4736 29.2242C102.592 29.3338 114.047 35.8661 135.937 35.8661C153.206 35.8661 159.848 27.8958 159.848 27.8958C122.653 34.5377 112.69 23.9107 89.4438 23.9107Z" fill="#96D3FF"/>
<path d="M81.082 34.5377C65.1501 34.5377 60.2198 39.8512 60.2198 39.8512C81.3886 32.3238 94.9618 42.508 110.289 42.508C120.303 42.508 125.31 39.8512 125.31 39.8512C98.4531 40.294 100.999 34.5377 81.082 34.5377Z" fill="#569FD3"/>
<path d="M0.573975 78.0659H2.30972V64.0312H0.573975V62.3946H6.82265L10.6909 70.7262H10.7901L14.4103 62.3946H20.7582V64.0312H19.0224V78.0659H20.7582V79.7024H13.2697V78.0659H15.0054V65.4446H14.8567L13.4185 69.0648L9.62463 77.0492L5.85559 69.0648L4.39261 65.4446H4.24383V78.0659H5.97957V79.7024H0.573975V78.0659Z" fill="white"/>
<path d="M31.9533 78.1651C32.4658 78.1651 32.9452 78.0824 33.3915 77.9171C33.8379 77.7518 34.2263 77.4956 34.5569 77.1484C34.9041 76.8013 35.1769 76.3549 35.3752 75.8094C35.5736 75.2639 35.6728 74.6109 35.6728 73.8505V68.2465C35.6728 67.4861 35.5736 66.8332 35.3752 66.2876C35.1769 65.7421 34.9041 65.2958 34.5569 64.9486C34.2263 64.6015 33.8379 64.3453 33.3915 64.1799C32.9452 64.0146 32.4658 63.932 31.9533 63.932C31.4409 63.932 30.9615 64.0146 30.5151 64.1799C30.0688 64.3453 29.6721 64.6015 29.3249 64.9486C28.9943 65.2958 28.7298 65.7421 28.5314 66.2876C28.3331 66.8332 28.2339 67.4861 28.2339 68.2465V73.8505C28.2339 74.6109 28.3331 75.2639 28.5314 75.8094C28.7298 76.3549 28.9943 76.8013 29.3249 77.1484C29.6721 77.4956 30.0688 77.7518 30.5151 77.9171C30.9615 78.0824 31.4409 78.1651 31.9533 78.1651ZM31.9533 80C30.7962 80 29.7217 79.8016 28.7298 79.4049C27.738 79.0081 26.8784 78.4378 26.151 77.6939C25.4236 76.9335 24.8533 75.9995 24.44 74.892C24.0268 73.7679 23.8201 72.4867 23.8201 71.0485C23.8201 69.6103 24.0268 68.3375 24.44 67.2299C24.8533 66.1058 25.4236 65.1718 26.151 64.4279C26.8784 63.6675 27.738 63.0889 28.7298 62.6922C29.7217 62.2954 30.7962 62.0971 31.9533 62.0971C33.1105 62.0971 34.185 62.2954 35.1769 62.6922C36.1687 63.0889 37.0283 63.6675 37.7557 64.4279C38.483 65.1718 39.0533 66.1058 39.4666 67.2299C39.8799 68.3375 40.0865 69.6103 40.0865 71.0485C40.0865 72.4867 39.8799 73.7679 39.4666 74.892C39.0533 75.9995 38.483 76.9335 37.7557 77.6939C37.0283 78.4378 36.1687 79.0081 35.1769 79.4049C34.185 79.8016 33.1105 80 31.9533 80Z" fill="white"/>
<path d="M43.1307 78.0659H44.8664V64.0312H43.1307V62.3946H52.6772C54.4956 62.3946 55.8512 62.7996 56.7438 63.6096C57.653 64.4031 58.1076 65.5768 58.1076 67.1307C58.1076 68.7011 57.62 69.9327 56.6447 70.8254C55.6693 71.7015 54.2725 72.1396 52.4541 72.1396H48.8834V78.0659H51.2391V79.7024H43.1307V78.0659ZM48.8834 70.3542H51.3382C52.1813 70.3542 52.8343 70.1559 53.2972 69.7591C53.7766 69.3458 54.0162 68.7259 54.0162 67.8994V66.6348C54.0162 65.8082 53.7766 65.1966 53.2972 64.7999C52.8343 64.3866 52.1813 64.1799 51.3382 64.1799H48.8834V70.3542Z" fill="white"/>
<path d="M68.7369 80C67.4971 80 66.3978 79.7768 65.439 79.3305C64.4968 78.8676 63.695 78.2395 63.0338 77.446C62.3725 76.636 61.8683 75.6854 61.5212 74.5944C61.1906 73.5034 61.0253 72.3297 61.0253 71.0733C61.0253 69.6186 61.2236 68.3292 61.6204 67.2051C62.0336 66.081 62.5792 65.147 63.2569 64.4031C63.9347 63.6427 64.7199 63.0724 65.6126 62.6922C66.5218 62.2954 67.4641 62.0971 68.4394 62.0971C68.9684 62.0971 69.4312 62.1549 69.828 62.2706C70.2412 62.3698 70.5966 62.5021 70.8942 62.6674C71.1918 62.8327 71.4397 63.0228 71.6381 63.2377C71.8365 63.4361 71.9852 63.6344 72.0844 63.8328H72.2332V62.3946H75.1096V67.8994H72.2332V66.7836C72.2332 65.9405 71.9522 65.2627 71.3901 64.7503C70.8446 64.2378 70.0429 63.9816 68.9849 63.9816C67.8773 63.9816 67.0094 64.3287 66.3813 65.023C65.7531 65.7173 65.439 66.8084 65.439 68.2961V73.3298C65.439 74.1067 65.5382 74.768 65.7366 75.3135C65.9349 75.859 66.2077 76.3136 66.5548 76.6773C66.9185 77.041 67.3401 77.3055 67.8195 77.4708C68.3154 77.6361 68.8526 77.7187 69.4312 77.7187C70.4892 77.7187 71.3819 77.446 72.1092 76.9005C72.8531 76.3384 73.4152 75.5863 73.7954 74.644L75.2088 75.4623C74.9939 76.0904 74.688 76.6856 74.2913 77.2476C73.8946 77.7931 73.4152 78.2725 72.8531 78.6858C72.3076 79.0991 71.6877 79.4214 70.9934 79.6529C70.2991 79.8843 69.5469 80 68.7369 80Z" fill="white"/>
<path d="M77.9869 78.0659H79.7227V64.0312H77.9869V62.3946H85.4754V64.0312H83.7397V69.9575H85.9713L87.5831 66.238C87.9302 65.4446 88.2691 64.7833 88.5998 64.2543C88.9304 63.7253 89.2692 63.3038 89.6164 62.9897C89.9635 62.6591 90.3272 62.4277 90.7074 62.2954C91.0876 62.1632 91.4927 62.0971 91.9225 62.0971C92.6168 62.0971 93.1705 62.3037 93.5838 62.717C94.0136 63.1302 94.2285 63.651 94.2285 64.2791C94.2285 64.9734 94.0301 65.5189 93.6334 65.9157C93.2532 66.2959 92.7573 66.486 92.1456 66.486C91.6001 66.486 91.1703 66.3455 90.8562 66.0645C90.5587 65.7669 90.3686 65.4198 90.2859 65.023H90.1867C90.0379 65.2545 89.8644 65.5437 89.666 65.8909C89.4841 66.238 89.3023 66.6265 89.1205 67.0563L87.6327 70.4286C88.046 70.4617 88.4179 70.5361 88.7485 70.6518C89.0791 70.751 89.385 70.908 89.666 71.1229C89.947 71.3378 90.2032 71.6023 90.4347 71.9164C90.6661 72.2305 90.8975 72.619 91.129 73.0818L93.5838 78.0659H95.1212V79.7024H89.9635L85.9713 71.6684H83.7397V78.0659H85.4754V79.7024H77.9869V78.0659Z" fill="white"/>
<path d="M104.959 78.1651C105.472 78.1651 105.951 78.0824 106.397 77.9171C106.844 77.7518 107.232 77.4956 107.563 77.1484C107.91 76.8013 108.183 76.3549 108.381 75.8094C108.579 75.2639 108.679 74.6109 108.679 73.8505V68.2465C108.679 67.4861 108.579 66.8332 108.381 66.2876C108.183 65.7421 107.91 65.2958 107.563 64.9486C107.232 64.6015 106.844 64.3453 106.397 64.1799C105.951 64.0146 105.472 63.932 104.959 63.932C104.447 63.932 103.967 64.0146 103.521 64.1799C103.075 64.3453 102.678 64.6015 102.331 64.9486C102 65.2958 101.736 65.7421 101.537 66.2876C101.339 66.8332 101.24 67.4861 101.24 68.2465V73.8505C101.24 74.6109 101.339 75.2639 101.537 75.8094C101.736 76.3549 102 76.8013 102.331 77.1484C102.678 77.4956 103.075 77.7518 103.521 77.9171C103.967 78.0824 104.447 78.1651 104.959 78.1651ZM104.959 80C103.802 80 102.727 79.8016 101.736 79.4049C100.744 79.0081 99.8841 78.4378 99.1568 77.6939C98.4294 76.9335 97.8591 75.9995 97.4458 74.892C97.0326 73.7679 96.8259 72.4867 96.8259 71.0485C96.8259 69.6103 97.0326 68.3375 97.4458 67.2299C97.8591 66.1058 98.4294 65.1718 99.1568 64.4279C99.8841 63.6675 100.744 63.0889 101.736 62.6922C102.727 62.2954 103.802 62.0971 104.959 62.0971C106.116 62.0971 107.191 62.2954 108.183 62.6922C109.174 63.0889 110.034 63.6675 110.761 64.4279C111.489 65.1718 112.059 66.1058 112.472 67.2299C112.886 68.3375 113.092 69.6103 113.092 71.0485C113.092 72.4867 112.886 73.7679 112.472 74.892C112.059 75.9995 111.489 76.9335 110.761 77.6939C110.034 78.4378 109.174 79.0081 108.183 79.4049C107.191 79.8016 106.116 80 104.959 80Z" fill="white"/>
<path d="M116.136 78.0659H117.872V64.0312H116.136V62.3946H123.526V64.0312H121.79V70.379L121.542 74.7184H121.641L128.683 64.5519V64.0312H126.948V62.3946H134.337V64.0312H132.601V78.0659H134.337V79.7024H126.948V78.0659H128.683V71.718L128.931 67.3787H128.832L121.79 77.5452V78.0659H123.526V79.7024H116.136V78.0659ZM125.237 61.2044C124.46 61.2044 123.774 61.1217 123.179 60.9564C122.6 60.7746 122.104 60.5432 121.691 60.2621C121.278 59.9646 120.963 59.6257 120.749 59.2455C120.55 58.8487 120.451 58.4272 120.451 57.9809C120.451 57.3858 120.616 56.9146 120.947 56.5675C121.294 56.2203 121.749 56.0468 122.311 56.0468C122.889 56.0468 123.327 56.2203 123.625 56.5675C123.939 56.9146 124.096 57.3279 124.096 57.8073C124.096 58.2206 123.997 58.576 123.799 58.8735C123.6 59.1711 123.327 59.386 122.98 59.5182V59.667C123.195 59.7001 123.493 59.7414 123.873 59.791C124.27 59.8406 124.724 59.8654 125.237 59.8654C125.749 59.8654 126.195 59.8406 126.576 59.791C126.972 59.7414 127.278 59.7001 127.493 59.667V59.5182C127.146 59.386 126.873 59.1711 126.675 58.8735C126.477 58.576 126.377 58.2206 126.377 57.8073C126.377 57.3279 126.526 56.9146 126.824 56.5675C127.138 56.2203 127.584 56.0468 128.163 56.0468C128.725 56.0468 129.171 56.2203 129.502 56.5675C129.849 56.9146 130.022 57.3858 130.022 57.9809C130.022 58.4272 129.915 58.8487 129.7 59.2455C129.502 59.6257 129.196 59.9646 128.783 60.2621C128.369 60.5432 127.865 60.7746 127.27 60.9564C126.675 61.1217 125.997 61.2044 125.237 61.2044Z" fill="white"/>
<path d="M143.631 78.0659H145.367V64.0312H143.631V62.3946H156.649V67.0067H153.773V64.1799H149.384V69.3872H152.211C154.244 69.3872 155.732 69.8335 156.674 70.7262C157.616 71.6188 158.088 72.8421 158.088 74.396C158.088 76.1318 157.583 77.4542 156.575 78.3634C155.583 79.2561 154.128 79.7024 152.211 79.7024H143.631V78.0659ZM151.169 77.9171C152.029 77.9171 152.715 77.7022 153.227 77.2724C153.74 76.8426 153.996 76.1318 153.996 75.1399V73.9497C153.996 72.9578 153.74 72.247 153.227 71.8172C152.715 71.3874 152.029 71.1725 151.169 71.1725H149.384V77.9171H151.169Z" fill="white"/>
<path d="M160.648 78.0659H162.384V64.0312H160.648V62.3946H170.194C172.013 62.3946 173.368 62.7996 174.261 63.6096C175.17 64.4031 175.625 65.5768 175.625 67.1307C175.625 68.7011 175.137 69.9327 174.162 70.8254C173.186 71.7015 171.79 72.1396 169.971 72.1396H166.401V78.0659H168.756V79.7024H160.648V78.0659ZM166.401 70.3542H168.855C169.698 70.3542 170.351 70.1559 170.814 69.7591C171.294 69.3458 171.533 68.7259 171.533 67.8994V66.6348C171.533 65.8082 171.294 65.1966 170.814 64.7999C170.351 64.3866 169.698 64.1799 168.855 64.1799H166.401V70.3542Z" fill="white"/>
<path d="M178.27 78.0659H180.005V64.0312H178.27V62.3946H185.659V64.0312H183.923V70.379L183.675 74.7184H183.774L190.817 64.5519V64.0312H189.081V62.3946H196.47V64.0312H194.734V78.0659H196.47V79.7024H189.081V78.0659H190.817V71.718L191.065 67.3787H190.965L183.923 77.5452V78.0659H185.659V79.7024H178.27V78.0659Z" fill="white"/>
<path d="M206.002 80C204.878 80 203.911 79.9008 203.101 79.7024C202.291 79.4875 201.613 79.2065 201.068 78.8594C200.539 78.5122 200.142 78.1237 199.877 77.6939C199.629 77.2476 199.505 76.793 199.505 76.3301C199.505 75.6689 199.687 75.1482 200.051 74.768C200.415 74.3878 200.894 74.1977 201.489 74.1977C202.15 74.1977 202.646 74.396 202.977 74.7928C203.324 75.173 203.498 75.6441 203.498 76.2062C203.498 76.5368 203.415 76.8509 203.25 77.1484C203.084 77.4294 202.869 77.6526 202.605 77.8179V77.9667C202.869 78.0659 203.225 78.1485 203.671 78.2147C204.117 78.2808 204.605 78.3138 205.134 78.3138C206.506 78.3138 207.523 78.0494 208.184 77.5204C208.845 76.9748 209.176 76.2723 209.176 75.4127V74.4456C209.176 73.5695 208.878 72.8917 208.283 72.4123C207.705 71.9329 206.886 71.6932 205.828 71.6932H203.646V69.9079H205.729C206.556 69.9079 207.242 69.693 207.787 69.2632C208.349 68.8334 208.63 68.2217 208.63 67.4283V66.5356C208.63 65.6595 208.374 65.0065 207.862 64.5767C207.366 64.1469 206.655 63.932 205.729 63.932C204.804 63.932 204.076 64.1386 203.547 64.5519C203.018 64.9652 202.754 65.5685 202.754 66.362V67.5027H199.877V62.3946H202.754V63.8328H202.878C203.324 63.2707 203.878 62.8409 204.539 62.5434C205.217 62.2458 206.109 62.0971 207.217 62.0971C208.06 62.0971 208.821 62.2128 209.498 62.4442C210.193 62.6756 210.779 62.9897 211.259 63.3865C211.738 63.7832 212.102 64.2543 212.35 64.7999C212.614 65.3454 212.747 65.9322 212.747 66.5604C212.747 67.0729 212.647 67.5522 212.449 67.9986C212.267 68.4284 212.011 68.8086 211.68 69.1392C211.35 69.4698 210.953 69.7509 210.49 69.9823C210.044 70.2137 209.564 70.3873 209.052 70.503V70.6518C210.308 70.8667 211.325 71.3296 212.102 72.0404C212.895 72.7347 213.292 73.6852 213.292 74.892C213.292 75.6689 213.119 76.3715 212.771 76.9996C212.441 77.6278 211.961 78.1651 211.333 78.6114C210.705 79.0577 209.936 79.4049 209.027 79.6529C208.134 79.8843 207.126 80 206.002 80Z" fill="white"/>
</g>
</svg>
