<svg width="59" height="24" viewBox="0 0 59 24" fill="none" xmlns="http://www.w3.org/2000/svg">
<path d="M44.625 0C53.25 0 57.375 6.375 57.75 9C54.75 5.625 50.625 3.75 45 3.75C39.9256 3.73222 34.8821 6.63906 32.625 11.25C29.937 6.54542 24.9891 3.84181 20.25 3.75C13.5 3.75 9 6 5.25 9.75C5.25 7.875 10.125 0 19.875 0C29.625 0 32.625 4.5 32.625 4.5C32.625 4.5 36 0 44.625 0Z" fill="white"/>
<path d="M18.75 13.5C7.875 13.5 1.5 16.875 0 18.75C3.75 17.25 10.2548 16.4793 14.25 16.5C26.1732 16.5619 32.6412 20.25 45 20.25C54.75 20.25 58.5 15.75 58.5 15.75C37.5 19.5 31.875 13.5 18.75 13.5Z" fill="#96D3FF"/>
<path d="M14.0288 19.5C5.03365 19.5 2.25 22.5 2.25 22.5C14.2019 18.25 21.8654 24 30.5192 24C36.1731 24 39 22.5 39 22.5C23.8365 22.75 25.274 19.5 14.0288 19.5Z" fill="#569FD3"/>
</svg>
