<svg width="78" height="32" viewBox="0 0 78 32" fill="none" xmlns="http://www.w3.org/2000/svg">
<path d="M59.5 0C71 0 76.5 8.5 77 12C73 7.5 67.5 5 60 5C53.2341 4.97629 46.5095 8.85208 43.5 15C39.9161 8.72723 33.3187 5.12242 27 5C18 5 12 8 7 13C7 10.5 13.5 0 26.5 0C39.5 0 43.5 6 43.5 6C43.5 6 48 0 59.5 0Z" fill="#F2C94C"/>
<path d="M25 18C10.5 18 2 22.5 0 25C5 23 13.673 21.9724 19 22C34.8976 22.0825 43.5216 27 60 27C73 27 78 21 78 21C50 26 42.5 18 25 18Z" fill="#005596"/>
<path d="M18.7051 26C6.71154 26 3 30 3 30C18.9359 24.3333 29.1538 32 40.6923 32C48.2308 32 52 30 52 30C31.7821 30.3333 33.6987 26 18.7051 26Z" fill="#569FD3"/>
</svg>
