<svg width="56" height="49" viewBox="0 0 112 98" fill="none" xmlns="http://www.w3.org/2000/svg">
<path d="M39.5559 10.696C39.5559 10.4048 39.3132 10.1622 39.022 10.1622C38.7308 10.1622 38.4882 10.4048 38.4882 10.696C38.4882 10.9872 38.7308 11.2299 39.022 11.2299C39.3132 11.2299 39.5559 10.997 39.5559 10.696Z" stroke="#569FD3" stroke-width="3" stroke-miterlimit="10"/>
<path d="M102.02 11.4047C102.02 11.1135 101.777 10.8708 101.486 10.8708C101.194 10.8708 100.952 11.1135 100.952 11.4047C100.952 11.6959 101.194 11.9385 101.486 11.9385C101.787 11.9385 102.02 11.6959 102.02 11.4047Z" stroke="#569FD3" stroke-width="3" stroke-miterlimit="10"/>
<path d="M2 96H107.271" stroke="#569FD3" stroke-width="3" stroke-miterlimit="10" stroke-linecap="round"/>
<path d="M13.5706 49.2323H2V86.1766H13.5706V49.2323Z" stroke="#569FD3" stroke-width="3" stroke-miterlimit="10"/>
<path d="M107.271 30.0515H95.7004V86.1766H107.271V30.0515Z" stroke="#569FD3" stroke-width="3" stroke-miterlimit="10"/>
<path d="M44.8074 29.3526H33.2368V86.1767H44.8074V29.3526Z" stroke="#569FD3" stroke-width="3" stroke-miterlimit="10"/>
<path d="M46.5926 13.8135C48.3151 9.62957 46.3198 4.84144 42.1358 3.11891C37.9519 1.39638 33.1637 3.39175 31.4412 7.57569C29.7187 11.7596 31.714 16.5478 35.898 18.2703C40.0819 19.9928 44.8701 17.9975 46.5926 13.8135Z" stroke="#569FD3" stroke-width="3" stroke-miterlimit="10"/>
<path d="M102.8 19.4895C107.267 18.7664 110.302 14.5593 109.579 10.0925C108.856 5.62581 104.648 2.59095 100.182 3.31399C95.715 4.03702 92.6801 8.24416 93.4032 12.7109C94.1262 17.1776 98.3333 20.2125 102.8 19.4895Z" stroke="#569FD3" stroke-width="3" stroke-miterlimit="10"/>
<path d="M76.044 47.1162H64.4734V86.1766H76.044V47.1162Z" stroke="#569FD3" stroke-width="3" stroke-miterlimit="10"/>
<path d="M70.2588 33.3907C72.9768 33.3907 75.1802 31.1873 75.1802 28.4693C75.1802 25.7513 72.9768 23.5479 70.2588 23.5479C67.5408 23.5479 65.3374 25.7513 65.3374 28.4693C65.3374 31.1873 67.5408 33.3907 70.2588 33.3907Z" stroke="#569FD3" stroke-width="3" stroke-miterlimit="10"/>
<path d="M12.7067 30.5757C12.7067 27.8577 10.5032 25.6543 7.78527 25.6543C5.06735 25.6543 2.86389 27.8577 2.86389 30.5757C2.86389 33.2936 5.06735 35.497 7.78527 35.497C10.5032 35.5068 12.7067 33.3033 12.7067 30.5757Z" stroke="#569FD3" stroke-width="3" stroke-miterlimit="10"/>
<path d="M11.4739 27.3239L31.9748 14.87" stroke="#569FD3" stroke-width="3" stroke-miterlimit="10"/>
<path d="M46.574 13.8799L65.3276 25.6543" stroke="#569FD3" stroke-width="3" stroke-miterlimit="10"/>
<path d="M74.5879 26.1299L94.0987 14.9379" stroke="#569FD3" stroke-width="3" stroke-miterlimit="10"/>
</svg>
