<svg width="106" height="100" viewBox="0 0 106 100" fill="none" xmlns="http://www.w3.org/2000/svg">
<path d="M64.5412 73.4072H44.1242C44.0806 72.2739 43.9847 68.9001 43.9847 68.6124C43.9847 68.3247 43.9935 68.0283 44.0022 67.7406H44.6386C47.3759 67.7406 49.5903 65.5263 49.5903 62.789C49.5903 60.0777 47.4108 57.8809 44.7083 57.846C45.3273 53.1384 46.3124 48.4831 47.5939 43.9237C48.4918 40.733 49.5292 37.5772 50.6974 34.4737C51.3164 32.826 51.9702 31.3178 52.7287 29.7225C53.6615 27.7784 54.4635 25.7646 54.9517 23.6549C55.8671 19.6796 55.3353 15.4864 53.4958 11.8598C50.462 5.87069 44.1765 2 37.4639 2C30.7512 2 24.4657 5.87069 21.4232 11.8598C19.5837 15.4864 19.0519 19.6796 19.9673 23.6549C20.4555 25.7646 21.2575 27.7784 22.1903 29.7225C22.9575 31.3178 23.6026 32.826 24.2216 34.4737C25.3898 37.5772 26.4272 40.733 27.3251 43.9237C28.6066 48.4831 29.5917 53.1471 30.2107 57.846C27.5082 57.8809 25.3287 60.0777 25.3287 62.789C25.3287 65.5263 27.543 67.7406 30.2804 67.7406H30.9168C30.9168 68.0283 30.9342 68.3247 30.9342 68.6124C30.9342 68.9001 30.8384 72.2739 30.7948 73.4072H10.3778C5.74864 73.4072 2 77.1558 2 81.785V91.4268H72.919V81.785C72.919 77.1558 69.1704 73.4072 64.5412 73.4072Z" stroke="#569FD3" stroke-width="3" stroke-miterlimit="10" stroke-linecap="round"/>
<path d="M7.87573 98H67.0432" stroke="#569FD3" stroke-width="3" stroke-miterlimit="10" stroke-linecap="round"/>
<path d="M37.464 7.9978C30.8908 7.9978 25.5642 13.3244 25.5642 19.8975" stroke="#569FD3" stroke-width="3" stroke-miterlimit="10" stroke-linecap="round"/>
<path d="M84.0186 62.5455C94.7841 62.5455 103.511 53.8183 103.511 43.0527C103.511 32.2872 94.7841 23.56 84.0186 23.56C73.2531 23.56 64.5259 32.2872 64.5259 43.0527C64.5259 53.8183 73.2531 62.5455 84.0186 62.5455Z" stroke="#569FD3" stroke-width="3" stroke-miterlimit="10" stroke-linecap="round"/>
<path d="M76.502 50.5667L91.5401 35.5286" stroke="#569FD3" stroke-width="3" stroke-miterlimit="10" stroke-linecap="round"/>
<path d="M84.5834 52.8333L93.8068 43.6186" stroke="#569FD3" stroke-width="3" stroke-miterlimit="10" stroke-linecap="round"/>
<path d="M83.45 33.262L74.2354 42.4854" stroke="#569FD3" stroke-width="3" stroke-miterlimit="10" stroke-linecap="round"/>
</svg>
