<svg width="91" height="100" viewBox="0 0 91 100" fill="none" xmlns="http://www.w3.org/2000/svg">
<path d="M66.2226 2H2V90.2592H66.2226V2Z" stroke="#569FD3" stroke-width="3" stroke-miterlimit="10"/>
<path d="M66.2226 9.74078H73.9634V98H9.74072V90.2593" stroke="#569FD3" stroke-width="3" stroke-miterlimit="10"/>
<path d="M31.8467 9.74078H9.74072V31.8468H31.8467V9.74078Z" stroke="#569FD3" stroke-width="3" stroke-miterlimit="10"/>
<path d="M25.6157 15.981V25.6157H15.981V15.981" stroke="#569FD3" stroke-width="3" stroke-miterlimit="10"/>
<path d="M8.46887 39.6607H59.5066" stroke="#569FD3" stroke-width="3" stroke-miterlimit="10"/>
<path d="M8.46887 47.7675H59.5066" stroke="#569FD3" stroke-width="3" stroke-miterlimit="10"/>
<path d="M8.46887 55.8742H59.5066" stroke="#569FD3" stroke-width="3" stroke-miterlimit="10"/>
<path d="M38.8188 9.74078H59.5066" stroke="#569FD3" stroke-width="3" stroke-miterlimit="10"/>
<path d="M38.8188 17.8475H59.5066" stroke="#569FD3" stroke-width="3" stroke-miterlimit="10"/>
<path d="M8.46887 63.9901H59.5066" stroke="#569FD3" stroke-width="3" stroke-miterlimit="10"/>
<path d="M59.5067 82.1068H41.8567" stroke="#569FD3" stroke-width="3" stroke-miterlimit="10"/>
<path d="M58.0793 71.5479V76.8913H43.2841V71.5479" stroke="#569FD3" stroke-width="3" stroke-miterlimit="10"/>
<path d="M83.2445 82.8402H88.771V49.544H83.2445V82.8402Z" stroke="#569FD3" stroke-width="3" stroke-miterlimit="10"/>
<path d="M85.8124 92.4278H86.1967C87.6149 92.4278 88.7678 91.2749 88.7678 89.8567V82.8479H83.2413V89.8567C83.2413 91.2749 84.3942 92.4278 85.8124 92.4278Z" stroke="#569FD3" stroke-width="3" stroke-miterlimit="10"/>
<path d="M86.0046 92.4278V98" stroke="#569FD3" stroke-width="3" stroke-miterlimit="10"/>
<path d="M86.1967 44.016H85.8124C84.3942 44.016 83.2413 45.1689 83.2413 46.5871V49.5425H88.7678V46.5871C88.7678 45.1689 87.6149 44.016 86.1967 44.016Z" stroke="#569FD3" stroke-width="3" stroke-miterlimit="10"/>
</svg>
