<svg width="100" height="100" viewBox="0 0 100 100" fill="none" xmlns="http://www.w3.org/2000/svg">
<path d="M40.6485 59.2848C51.0675 59.2848 59.5137 50.9039 59.5137 40.5656C59.5137 30.2273 51.0675 21.8465 40.6485 21.8465C30.2296 21.8465 21.7833 30.2273 21.7833 40.5656C21.7833 50.9039 30.2296 59.2848 40.6485 59.2848Z" stroke="#569FD3" stroke-width="3" stroke-miterlimit="10" stroke-linecap="round" stroke-linejoin="round"/>
<path d="M48.5293 32.0808C46.459 30.1835 43.6909 29.0294 40.6483 29.0294C34.2281 29.0294 29.0221 34.1951 29.0221 40.5656C29.0221 42.3152 29.4129 43.9724 30.1154 45.4543" stroke="#569FD3" stroke-width="3" stroke-miterlimit="10" stroke-linecap="round" stroke-linejoin="round"/>
<path d="M32.9718 49.2305C35.0188 51.017 37.7079 52.1018 40.6481 52.1018C47.0684 52.1018 52.2743 46.9362 52.2743 40.5657C52.2743 39.2592 52.0556 37.999 51.6509 36.8264" stroke="#569FD3" stroke-width="3" stroke-miterlimit="10" stroke-linecap="round" stroke-linejoin="round"/>
<path d="M40.6483 59.2848C40.6483 59.2848 22.7136 60.1527 8.13782 40.5657C22.7136 20.9786 40.6483 21.8465 40.6483 21.8465" stroke="#569FD3" stroke-width="3" stroke-miterlimit="10" stroke-linecap="round" stroke-linejoin="round"/>
<path d="M40.6484 59.2848C40.6484 59.2848 58.5832 60.1527 73.1589 40.5657C58.5832 20.9786 40.6484 21.8465 40.6484 21.8465" stroke="#569FD3" stroke-width="3" stroke-miterlimit="10" stroke-linecap="round" stroke-linejoin="round"/>
<path d="M40.8215 78.5833C62.1177 78.5833 79.3232 61.4396 79.251 40.2917C79.1788 19.1438 61.8563 2 40.5602 2C19.264 2 2.05851 19.1438 2.13069 40.2917C2.20287 61.4396 19.5254 78.5833 40.8215 78.5833Z" stroke="#569FD3" stroke-width="3" stroke-miterlimit="10" stroke-linecap="round"/>
<path d="M41.3077 85.5395C65.7028 85.5395 85.4744 65.9209 85.4744 41.7147" stroke="#569FD3" stroke-width="3" stroke-miterlimit="10" stroke-linecap="round"/>
<path d="M75.9362 68.9083L96.5484 89.361C98.5384 91.3356 98.5384 94.5444 96.5484 96.519C94.5584 98.4937 91.3246 98.4937 89.3346 96.519L68.7223 76.0663" stroke="#569FD3" stroke-width="3" stroke-miterlimit="10" stroke-linecap="round"/>
</svg>
